<svg xmlns="http://www.w3.org/2000/svg" xmlns:svg="http://www.w3.org/2000/svg" viewBox="0 0 38.716717 38.718048"><path d="m 31.762,0.13204998 c -1.605,0.344 -3.118,1.51800002 -3.837,2.97600002 -0.859,1.744 -0.862,3.471 -0.007,5.206 0.918,1.863 2.976,3.13 5.082,3.13 2.647,0 5.051,-1.949 5.592,-4.534 0.849,-4.06 -2.769,-7.65100002 -6.83,-6.77800002 M 34.106,2.15805 a 3.948,3.948 0 0 1 2.455,2.454 c 0.501,1.497 -0.151,3.3 -1.519,4.198 -0.666,0.438 -1.268,0.621 -2.042,0.621 a 3.707,3.707 0 0 1 -3.713,-3.713 c 0,-1.613 1.019,-3.005 2.613,-3.569 0.513,-0.182 1.654,-0.177 2.206,0.009 m -32.048,0.431 c -0.817,0.22 -1.491,0.802 -1.865,1.612 L 0,4.61805 v 31.992 l 0.196,0.424 a 3.059,3.059 0 0 0 1.393,1.429 l 0.519,0.255 H 34.1 l 0.519,-0.255 a 3.059,3.059 0 0 0 1.393,-1.429 l 0.196,-0.424 0.025,-11.06 0.025,-11.06 -0.284,-0.284 c -0.231,-0.23 -0.359,-0.284 -0.682,-0.284 -0.322,0 -0.453,0.054 -0.678,0.28 l -0.279,0.279 -0.026,10.856 -0.026,10.857 -0.3,0.3 -0.299,0.299 H 2.524 l -0.299,-0.3 -0.3,-0.299 v -31.16 l 0.299,-0.299 0.3,-0.3 10.857,-0.026 10.856,-0.026 0.279,-0.279 c 0.398,-0.398 0.397,-0.959 -0.002,-1.358 l -0.282,-0.282 -10.879,0.006 c -8.29,0.005 -10.977,0.033 -11.295,0.119 m 20.406,16.83 -3.214,3.205 -2.071,-2.059 -2.07,-2.059 h -0.896 l -3.692,3.692 -3.692,3.692 v 0.426 c 0,0.353 0.048,0.474 0.282,0.708 0.233,0.233 0.355,0.282 0.705,0.282 h 0.423 l 3.214,-3.206 3.214,-3.205 2.07,2.06 2.07,2.059 h 0.896 l 3.692,-3.692 3.692,-3.692 v -0.426 c 0,-0.353 -0.048,-0.474 -0.282,-0.708 -0.233,-0.233 -0.355,-0.282 -0.705,-0.282 h -0.423 l -3.213,3.205"></path></svg>