<svg xmlns="http://www.w3.org/2000/svg" width="1920" height="1757" viewBox="0 0 1920 1757" fill="none"><g filter="url(#filter0_f_6153_173)"><path d="M986.216 1223.29C986.422 1223.36 986.628 1223.44 986.834 1223.51C986.263 1223.51 986.004 1223.44 986.216 1223.29C789.566 1152.18 210.961 1053.23 292.891 822.069C374.906 590.669 948.441 414.781 1120.8 406.349C1290.99 387.719 1614.2 412.877 1545.58 662.553C1459.81 974.649 1193.51 937.932 1150.21 1002.39C1106.92 1066.85 1152.66 1193.32 1064.03 1208.41C1003.75 1218.68 987.418 1222.4 986.216 1223.29Z" fill="url(#paint0_linear_6153_173)" fill-opacity="0.3"></path><path d="M986.834 1224.01L986.922 1223.51C987.092 1223.45 987.309 1223.37 987.578 1223.29C988.243 1223.09 989.205 1222.83 990.522 1222.52C993.155 1221.89 997.185 1221.02 1003.07 1219.86C1014.83 1217.54 1033.98 1214.04 1064.11 1208.91C1086.42 1205.11 1100.3 1194.29 1109.23 1179.17C1118.14 1164.09 1122.09 1144.77 1124.62 1123.97C1125.67 1115.31 1126.48 1106.37 1127.29 1097.38C1127.46 1095.58 1127.62 1093.77 1127.78 1091.97C1128.78 1081.15 1129.85 1070.29 1131.44 1059.73C1134.62 1038.6 1139.86 1018.69 1150.63 1002.67C1155.97 994.717 1164.78 988.288 1176.34 982.53C1187.89 976.774 1202.15 971.711 1218.35 966.462C1224.42 964.494 1230.76 962.5 1237.33 960.435C1265.8 951.489 1298.55 941.195 1332.18 925.79C1415 887.849 1503.13 818.899 1546.07 662.686C1563.25 600.161 1555.92 551.624 1532.52 514.304C1509.13 476.999 1469.73 450.975 1422.92 433.368C1329.32 398.16 1205.89 396.533 1120.76 405.851C1034.49 410.075 847.971 456.177 672.772 530.135C585.161 567.119 500.357 611.08 432.321 660.271C364.295 709.455 312.973 763.91 292.419 821.902C282.143 850.897 282.218 877.841 290.619 902.918C299.018 927.987 315.725 951.159 338.663 972.644C384.53 1015.61 455.393 1051.9 534.903 1083.16C614.423 1114.43 702.645 1140.7 783.264 1163.59C799.4 1168.17 815.23 1172.61 830.625 1176.94C891.983 1194.17 946.422 1209.45 985.703 1223.63C985.748 1223.72 985.809 1223.78 985.86 1223.82C985.938 1223.88 986.019 1223.91 986.073 1223.93C986.27 1224 986.556 1224.01 986.834 1224.01Z" stroke="#A47D7D"></path></g><g filter="url(#filter1_f_6153_173)"><ellipse cx="254" cy="253" rx="254" ry="253" transform="matrix(1 0 0 -1 745 1356.52)" fill="#B66DD2" fill-opacity="0.5"></ellipse></g><defs><filter id="filter0_f_6153_173" x="-116" y="0.509766" width="2072" height="1624" filterUnits="userSpaceOnUse" color-interpolation-filters="sRGB"><feGaussianBlur stdDeviation="200"></feGaussianBlur></filter><filter id="filter1_f_6153_173" x="345" y="450.516" width="1308" height="1306" filterUnits="userSpaceOnUse" color-interpolation-filters="sRGB"><feGaussianBlur stdDeviation="200"></feGaussianBlur></filter><linearGradient id="paint0_linear_6153_173" x1="914.949" y1="1223.1" x2="1316.15" y2="514.469" gradientUnits="userSpaceOnUse"><stop stop-color="#19206A"></stop><stop offset="1" stop-color="#5781F3"></stop></linearGradient></defs></svg>