<svg xmlns="http://www.w3.org/2000/svg" width="1920" height="1537" viewBox="0 0 1920 1537" fill="none"><g filter="url(#filter0_f_6195_168)"><path d="M965.216 1129.8C965.422 1129.87 965.628 1129.93 965.834 1130C965.263 1130 965.004 1129.94 965.216 1129.8C768.566 1066.74 189.961 978.982 271.891 773.978C353.906 568.758 927.441 412.769 1099.8 405.292C1269.99 388.769 1593.2 411.081 1524.58 632.509C1438.81 909.295 1172.51 876.732 1129.21 933.898C1085.92 991.064 1131.66 1103.23 1043.03 1116.61C982.755 1125.72 966.418 1129.02 965.216 1129.8Z" fill="url(#paint0_linear_6195_168)" fill-opacity="0.3"></path><path d="M965.834 1130.5L965.903 1130.06C966.075 1130 966.292 1129.94 966.562 1129.87C967.229 1129.69 968.192 1129.46 969.509 1129.18C972.143 1128.62 976.175 1127.85 982.057 1126.82C993.82 1124.76 1012.97 1121.66 1043.1 1117.11C1065.39 1113.74 1079.28 1104.15 1088.22 1090.73C1097.13 1077.34 1101.09 1060.18 1103.62 1041.74C1104.67 1034.05 1105.48 1026.13 1106.29 1018.15C1106.46 1016.55 1106.62 1014.95 1106.78 1013.35C1107.78 1003.76 1108.85 994.13 1110.44 984.766C1113.62 966.032 1118.86 948.397 1129.61 934.2C1134.95 927.155 1143.75 921.454 1155.31 916.345C1166.87 911.239 1181.13 906.748 1197.33 902.093C1203.4 900.347 1209.75 898.579 1216.32 896.747C1244.78 888.814 1277.53 879.685 1311.16 866.024C1393.96 832.381 1482.12 771.23 1525.06 632.657C1542.25 577.18 1534.92 534.101 1511.5 500.979C1488.1 467.884 1448.7 444.806 1401.9 429.195C1308.31 397.973 1184.89 396.53 1099.77 404.793C1013.51 408.538 826.989 449.423 651.791 515.013C564.182 547.812 479.38 586.798 411.344 630.424C343.324 674.04 291.989 722.338 271.426 773.792C261.141 799.528 261.215 823.451 269.626 845.716C278.031 867.966 294.748 888.524 317.685 907.578C363.553 945.679 434.415 977.862 513.921 1005.59C593.44 1033.32 681.659 1056.61 762.279 1076.91C778.413 1080.98 794.242 1084.92 809.635 1088.75C870.996 1104.03 925.439 1117.59 964.722 1130.17C964.773 1130.25 964.838 1130.3 964.883 1130.34C964.96 1130.39 965.039 1130.42 965.09 1130.43C965.278 1130.49 965.556 1130.5 965.834 1130.5Z" stroke="#A47D7D"></path></g><g filter="url(#filter1_f_6195_168)"><ellipse cx="301.103" cy="144.041" rx="301.103" ry="144.041" transform="matrix(0.973584 0.22833 0.285747 -0.958305 1231.39 873.016)" fill="#45BDDE"></ellipse></g><g filter="url(#filter2_f_6195_168)"><ellipse cx="254" cy="224.5" rx="254" ry="224.5" transform="matrix(1 0 0 -1 -163 1137)" fill="#9440B0"></ellipse></g><defs><filter id="filter0_f_6195_168" x="-137" y="0" width="2072" height="1531" filterUnits="userSpaceOnUse" color-interpolation-filters="sRGB"><feGaussianBlur stdDeviation="200"></feGaussianBlur></filter><filter id="filter1_f_6195_168" x="869.634" y="249.488" width="1392.12" height="1108.49" filterUnits="userSpaceOnUse" color-interpolation-filters="sRGB"><feGaussianBlur stdDeviation="200"></feGaussianBlur></filter><filter id="filter2_f_6195_168" x="-563" y="288" width="1308" height="1249" filterUnits="userSpaceOnUse" color-interpolation-filters="sRGB"><feGaussianBlur stdDeviation="200"></feGaussianBlur></filter><linearGradient id="paint0_linear_6195_168" x1="893.949" y1="1129.64" x2="1226.75" y2="466.834" gradientUnits="userSpaceOnUse"><stop stop-color="#19206A"></stop><stop offset="1" stop-color="#5781F3"></stop></linearGradient></defs></svg>