<svg xmlns="http://www.w3.org/2000/svg" viewBox="0 0 40 40"><path d="M30.5349 0.5022C30.5946 0.499409 30.6543 0.501369 30.7136 0.508062L38.5066 1.47193C39.1252 1.54381 39.5677 2.10453 39.4939 2.7229L38.5418 10.5188C38.4687 11.1414 37.9007 11.5842 37.2791 11.5032C36.66 11.4256 36.2223 10.8591 36.3035 10.2405L36.9304 5.13989L21.113 17.5061L21.1218 35.6702L24.7664 32.0344C25.3457 31.5094 25.9514 31.6486 26.3484 32.0344C26.7818 32.4727 26.7818 33.1782 26.3484 33.6165L20.7908 39.1741C20.3525 39.6074 19.6471 39.6074 19.2088 39.1741L13.6482 33.6165C13.207 33.1768 13.207 32.4624 13.6482 32.0227C14.0882 31.5796 14.8049 31.5796 15.2449 32.0227L18.8748 35.6526L18.8631 17.5383C13.6303 13.3746 8.34768 9.26394 3.06911 5.14282L3.69606 10.2405C3.77726 10.8591 3.33955 11.4256 2.72047 11.5032C2.1031 11.5771 1.5428 11.1363 1.4695 10.5188L0.50563 2.7229C0.431732 2.10555 0.872589 1.54529 1.49001 1.47193L9.2859 0.508059C9.90429 0.434164 10.4651 0.87673 10.5369 1.49536C10.6112 2.10869 10.1769 2.66716 9.56422 2.74634L4.45485 3.37036C9.63218 7.41155 14.8224 11.4479 19.9705 15.5403L35.5418 3.37036L30.4353 2.74634C29.8214 2.66862 29.3855 2.1097 29.4597 1.49536C29.5243 0.944542 29.9807 0.522977 30.5349 0.5022Z"></path></svg>