<svg xmlns="http://www.w3.org/2000/svg" xmlns:svg="http://www.w3.org/2000/svg" viewBox="0 0 54.999901 45.528069"><path d="m 54.8716,12.43617 c 0.0017,-0.0028 0.0039,-0.0051 0.0056,-0.0079 0.0035,-0.0057 0.0062,-0.0116 0.0097,-0.0174 0.0084,-0.0141 0.0164,-0.0283 0.0239,-0.043 0.005,-0.0098 0.0097,-0.0197 0.0142,-0.0296 0.0064,-0.0139 0.0125,-0.0279 0.0182,-0.0421 0.0045,-0.0113 0.0086,-0.0227 0.0125,-0.0341 0.0044,-0.013 0.0087,-0.026 0.0124,-0.0394 0.0038,-0.0131 0.0072,-0.0262 0.0102,-0.0395 0.0028,-0.0119 0.0053,-0.024 0.0076,-0.0361 0.0027,-0.0149 0.005,-0.0296 0.0068,-0.0445 0.0014,-0.0111 0.0028,-0.0223 0.0036,-0.0336 0.0014,-0.016 0.0021,-0.032 0.0025,-0.0481 2e-4,-0.0069 0.0011,-0.0135 0.0011,-0.0204 0,-0.0041 -5e-4,-0.0082 -6e-4,-0.0123 -3e-4,-0.0152 -0.0012,-0.0304 -0.0023,-0.0455 -9e-4,-0.0123 -0.0016,-0.0246 -0.0031,-0.0367 -0.0015,-0.0125 -0.0037,-0.0249 -0.0057,-0.0373 -0.0024,-0.0142 -0.0047,-0.0285 -0.0077,-0.0424 -0.0022,-0.0101 -0.0051,-0.0201 -0.0077,-0.0301 -0.0041,-0.0155 -0.0081,-0.031 -0.0129,-0.0461 -0.0031,-0.0092 -0.0067,-0.0183 -0.0101,-0.0274 -0.0056,-0.0152 -0.0109,-0.0303 -0.0174,-0.045 -0.0044,-0.0102 -0.0096,-0.02 -0.0145,-0.03 -0.0064,-0.013 -0.0124,-0.026 -0.0194,-0.0386 -0.0067,-0.012 -0.0141,-0.0236 -0.0214,-0.0353 -0.0063,-0.01 -0.0122,-0.0201 -0.0188,-0.0297 -0.0089,-0.0128 -0.0186,-0.0252 -0.0281,-0.0376 -0.0063,-0.008 -0.0122,-0.0162 -0.0188,-0.0241 -0.01,-0.0119 -0.0207,-0.0232 -0.0315,-0.0346 -0.0073,-0.0078 -0.0144,-0.0157 -0.0221,-0.0233 -0.01,-0.0098 -0.0206,-0.019 -0.0312,-0.0284 -0.0097,-0.0086 -0.0194,-0.0172 -0.0295,-0.0253 -0.0092,-0.0074 -0.0189,-0.0143 -0.0285,-0.0213 -0.0126,-0.0092 -0.0252,-0.0182 -0.0383,-0.0267 -0.0034,-0.0021 -0.0064,-0.0047 -0.0098,-0.0068 L 47.732,7.01077 c -0.0047,-0.003 -0.0095,-0.0052 -0.0143,-0.008 -0.0096,-0.0057 -0.0189,-0.0115 -0.0287,-0.0168 -0.006,-0.0032 -0.0121,-0.0062 -0.0181,-0.0093 -0.0097,-0.0049 -0.0195,-0.0094 -0.0294,-0.014 -0.0078,-0.0036 -0.0156,-0.0074 -0.0237,-0.0108 -0.0056,-0.0024 -0.0112,-0.0044 -0.0168,-0.0066 -0.0131,-0.0052 -0.0262,-0.0099 -0.0394,-0.0143 -0.0049,-0.0016 -0.0094,-0.0038 -0.0144,-0.0053 -0.0015,-4e-4 -0.003,-7e-4 -0.0044,-0.0012 -0.0047,-0.0014 -0.0094,-0.0025 -0.0142,-0.0039 -0.0154,-0.0046 -0.0308,-0.0083 -0.0463,-0.0119 -0.0059,-0.0013 -0.0117,-0.0031 -0.0176,-0.0043 -0.0039,-7e-4 -0.0078,-0.0011 -0.0116,-0.0018 -0.0158,-0.0029 -0.0315,-0.0053 -0.0473,-0.0073 -0.0113,-0.0014 -0.0226,-0.0028 -0.034,-0.0038 -0.0139,-0.0012 -0.0277,-0.0018 -0.0416,-0.0023 -0.0132,-4e-4 -0.0264,-7e-4 -0.0396,-5e-4 -0.012,2e-4 -0.024,9e-4 -0.036,0.0016 -0.0048,3e-4 -0.0095,3e-4 -0.0142,7e-4 -0.0031,2e-4 -0.0063,10e-5 -0.0094,4e-4 -0.0066,6e-4 -0.013,0.0018 -0.0195,0.0026 -0.0111,0.0013 -0.0221,0.003 -0.0332,0.0047 -0.0037,5e-4 -0.0073,0.001 -0.0109,0.0016 -0.005,9e-4 -0.0099,0.0012 -0.0147,0.0022 -0.0061,0.0012 -0.0119,0.0029 -0.0178,0.0042 -0.0111,0.0023 -0.0221,0.0052 -0.0332,0.008 -0.0137,0.0036 -0.0274,0.0073 -0.0409,0.0116 -0.0118,0.0037 -0.0234,0.0079 -0.035,0.0122 -0.0087,0.0032 -0.0174,0.0058 -0.0258,0.0093 -0.0035,0.0014 -0.007,0.0033 -0.0105,0.0048 -0.0126,0.0053 -0.0249,0.0112 -0.0371,0.0171 -0.0084,0.0041 -0.0171,0.0079 -0.0253,0.0122 -9e-4,4e-4 -0.0019,8e-4 -0.0027,0.0013 l -12.331,6.5765 -7.3298,-8.95861 c -3e-4,-4.4e-4 -7e-4,-7.6e-4 -0.001,-0.00119 C 27.2603,4.59707 27.2579,4.59438 27.2556,4.59158 27.2499,4.5848 27.2436,4.57867 27.2377,4.5721 27.2263,4.5594 27.2149,4.54659 27.2026,4.53465 27.1955,4.52765 27.1877,4.5213 27.1802,4.51463 27.1685,4.50397 27.157,4.49321 27.1446,4.4832 27.1329,4.47383 27.1204,4.46533 27.1082,4.45651 27.1073,4.45586 27.1064,4.45511 27.1054,4.45446 27.0973,4.44876 27.0896,4.44251 27.0813,4.43702 27.0689,4.42884 27.0557,4.42174 27.0428,4.41421 27.033,4.4085 27.0234,4.40237 27.0134,4.39709 27.0013,4.39074 26.9886,4.38547 26.9762,4.37976 26.9646,4.37449 26.9533,4.36868 26.9416,4.36394 26.9304,4.35942 26.9188,4.35587 26.9073,4.35189 26.8936,4.34704 26.88,4.34198 26.8662,4.33789 26.8644,4.33736 26.8627,4.3366 26.861,4.33617 26.8487,4.33262 26.8364,4.33047 26.8242,4.32756 26.8131,4.32498 26.8021,4.32197 26.7908,4.31981 26.7861,4.31895 26.7815,4.31788 26.7767,4.31701 L 2.67121,0.01205 C 2.66325,0.01065 2.65539,0.01022 2.64743,0.00904 2.6329,0.00689 2.61847,0.00484 2.60394,0.00344 2.5906,0.00215 2.57747,0.00151 2.56423,9.7e-4 2.55163,4.3e-4 2.53904,0 2.52645,0 2.51203,0 2.49771,5.4e-4 2.4834,0.0014 2.47177,0.00204 2.46004,0.0029 2.44842,0.00398 2.43399,0.00538 2.41968,0.00732 2.40547,0.00958 2.39363,0.01141 2.3819,0.01345 2.37017,0.01571 2.3566,0.0184 2.34326,0.02152 2.32991,0.02497 2.31753,0.02809 2.30516,0.03153 2.29289,0.0353 2.28051,0.03907 2.26845,0.04316 2.25629,0.04757 2.24348,0.0522 2.23089,0.05704 2.2183,0.06232 2.20667,0.06716 2.19537,0.07243 2.18396,0.07782 2.17169,0.08363 2.15953,0.08966 2.14748,0.09611 2.13574,0.10246 2.12433,0.10914 2.11303,0.11603 2.10216,0.12259 2.09129,0.12926 2.08064,0.13637 2.06815,0.14476 2.0561,0.15359 2.04415,0.16263 2.03791,0.16737 2.03123,0.17146 2.0251,0.17641 2.02219,0.17867 2.01982,0.18125 2.01692,0.18362 2.00486,0.19352 1.99335,0.20407 1.98183,0.21472 1.97354,0.22237 1.96504,0.2299 1.95707,0.23787 1.94674,0.2482 1.93716,0.25918 1.92737,0.27005 1.9193,0.27909 1.91101,0.28791 1.90347,0.29717 1.89486,0.30772 1.8869,0.31891 1.87883,0.33 1.87129,0.34022 1.86354,0.35034 1.85655,0.36078 1.84923,0.37187 1.84266,0.38338 1.83588,0.3949 1.82921,0.40609 1.82232,0.41707 1.81629,0.42848 1.81026,0.43989 1.80499,0.45184 1.7995,0.46357 1.7938,0.47573 1.78788,0.48779 1.78282,0.50016 1.77808,0.51157 1.77421,0.52341 1.77001,0.53514 1.76527,0.54849 1.76032,0.56184 1.75634,0.5754 1.753,0.58659 1.75031,0.59822 1.74741,0.60973 1.74375,0.62437 1.74009,0.6389 1.73729,0.65365 1.73654,0.65742 1.73535,0.66107 1.73471,0.66484 1.7332,0.67302 1.73277,0.68109 1.73159,0.68927 1.72954,0.70348 1.7275,0.71769 1.7262,0.732 1.72491,0.74535 1.72427,0.75859 1.72373,0.77183 c -5.4e-4,0.0127 -9.7e-4,0.0254 -9.7e-4,0.0381 0,0.01421 6.5e-4,0.02831 0.0014,0.04241 6.4e-4,0.01194 0.00151,0.02378 0.00269,0.03573 0.0014,0.01421 0.00334,0.0282 0.00549,0.04219 0.00183,0.01206 0.00398,0.02411 0.00635,0.03606 0.00269,0.01335 0.0057,0.02648 0.00915,0.03961 0.00323,0.01259 0.00667,0.02508 0.01044,0.03756 0.00377,0.01216 0.00786,0.02422 0.01216,0.03617 0.00463,0.0128 0.00947,0.02561 0.01475,0.03821 C 1.79003,1.12938 1.7952,1.14079 1.80058,1.15209 1.80639,1.16436 1.81242,1.17652 1.81887,1.18858 1.82512,1.20031 1.8319,1.21161 1.83868,1.22302 1.84524,1.234 1.85192,1.24487 1.85913,1.25553 1.86742,1.2679 1.87624,1.27985 1.88518,1.29169 1.88991,1.29804 1.894,1.30471 1.89906,1.31096 L 7.04947,7.74897 H 0.807241 c -0.007319,0 -0.014315,9e-4 -0.021527,0.0011 -0.014853,4e-4 -0.029706,0.0011 -0.044559,0.0022 -0.013024,0.0011 -0.02594,0.0026 -0.038748,0.0042 -0.012593,0.0017 -0.025186,0.0036 -0.037671,0.0057 -0.014208,0.0025 -0.0282,0.0055 -0.042084,0.0088 -0.011194,0.0025 -0.02228,0.0054 -0.033366,0.0086 -0.014315,0.004 -0.028308,0.0083 -0.0423,0.0131 -0.010871,0.0037 -0.021634,0.0076 -0.032397,0.0118 -0.013239,0.0052 -0.026262,0.0106 -0.03907,0.0164 -0.011409,0.0052 -0.022711,0.0107 -0.033904,0.0164 -0.011517,0.0059 -0.022926,0.0119 -0.03412,0.0184 -0.011947,0.0067 -0.023679,0.014 -0.035303,0.0214 -0.01001,0.0064 -0.019805,0.013 -0.029491,0.0198 -0.01184,0.0083 -0.023357,0.017 -0.034766,0.026 C 0.298679,7.93027 0.289746,7.93767 0.28092,7.94527 0.270264,7.95457 0.259716,7.96407 0.249491,7.97377 0.240127,7.98277 0.231194,7.99187 0.22226,8.00127 0.213434,8.01047 0.204824,8.01997 0.196429,8.02977 0.186634,8.04117 0.17727,8.05297 0.168121,8.06487 0.163708,8.07057 0.158973,8.07567 0.154667,8.08147 0.152192,8.08487 0.150254,8.08847 0.147886,8.09187 0.13863,8.10497 0.130127,8.11847 0.121624,8.13207 0.11592,8.14127 0.11,8.15057 0.104726,8.15987 c -0.0074266,0.0133 -0.0142074,0.0268 -0.0209882,0.0405 -0.0051664,0.0105 -0.0104403,0.0209 -0.0151761,0.0314 -0.0055969,0.0127 -0.0104404,0.0258 -0.0153914,0.0388 -0.0045206,0.0119 -0.0092564,0.0239 -0.0132388,0.036 -0.0038747,0.012 -0.0071037,0.0243 -0.0104403,0.0365 -0.0037671,0.0136 -0.0075343,0.0272 -0.0104403,0.0408 -0.0024756,0.0113 -0.0041977,0.0228 -0.0062427,0.0342 -0.0025831,0.015 -0.00516632,0.03 -0.00688843,0.045 -0.00129159,0.0109 -0.00193738,0.0219 -0.00269081,0.033 C 0.00204501,8.51187 0.00107632,8.52777 8.61057e-4,8.54357 5.38161e-4,8.54777 0,8.55187 0,8.55617 c 0,0.0074 8.61057e-4,0.0144 0.00107632,0.0216 4.3053e-4,0.0148 9.6869e-4,0.0297 0.00226028,0.0445 0.00107632,0.0131 0.00258317,0.0259 0.00419765,0.0388 0.00161448,0.0127 0.00355185,0.0253 0.00581215,0.0378 0.0024755,0.0141 0.0054892,0.028 0.0087182,0.0419 0.0026908,0.0113 0.0054892,0.0225 0.0086105,0.0336 0.0039824,0.0142 0.0082877,0.0281 0.0130235,0.042 0.0037672,0.0111 0.0077495,0.0219 0.0120548,0.0328 0.0050587,0.013 0.0104403,0.026 0.0161448,0.0387 0.005274,0.0116 0.0108709,0.0231 0.0165754,0.0345 0.0058121,0.0113 0.0117314,0.0225 0.0179744,0.0335 0.006889,0.0121 0.014315,0.0241 0.021849,0.0359 0.006243,0.0098 0.012701,0.0195 0.019374,0.029 0.008396,0.0119 0.017221,0.0237 0.02637,0.0352 0.007211,0.009 0.01453,0.018 0.022065,0.0267 0.009256,0.0107 0.018835,0.0213 0.028845,0.0316 0.008826,0.0093 0.017975,0.0182 0.027339,0.027 0.009364,0.0089 0.018728,0.0176 0.02863,0.0261 0.011409,0.0098 0.023141,0.019 0.03498,0.0282 0.005705,0.0044 0.010763,0.0091 0.016683,0.0134 L 18.878,22.69657 15.5102,44.58747 c -4e-4,0.0026 -7e-4,0.0052 -0.0012,0.0078 l -4e-4,0.0026 c -5e-4,0.0034 -5e-4,0.0066 -10e-4,0.0099 -0.0032,0.023 -0.0058,0.0459 -0.0071,0.0687 -5e-4,0.009 -2e-4,0.0179 -4e-4,0.0268 -3e-4,0.0171 -8e-4,0.0342 -10e-5,0.0512 5e-4,0.0134 0.002,0.0264 0.0032,0.0395 0.0012,0.0125 0.002,0.025 0.0037,0.0374 0.0021,0.0154 0.0053,0.0305 0.0083,0.0457 0.002,0.0101 0.0036,0.0204 0.0061,0.0304 0.0037,0.0155 0.0083,0.0305 0.0128,0.0457 0.0029,0.0098 0.0056,0.0196 0.0089,0.0293 0.0049,0.014 0.0105,0.0277 0.0161,0.0414 0.0043,0.0107 0.0084,0.0215 0.0132,0.0319 0.0054,0.0117 0.0114,0.0231 0.0173,0.0345 0.0063,0.0121 0.0123,0.0242 0.0191,0.0359 0.0055,0.0095 0.0116,0.0185 0.0174,0.0278 0.0082,0.0129 0.0164,0.0258 0.0254,0.0383 0.0057,0.0078 0.0119,0.0154 0.0178,0.023 0.01,0.0129 0.02,0.0257 0.0309,0.0381 0.0064,0.0073 0.0134,0.0142 0.0201,0.0214 0.011,0.0116 0.0219,0.0233 0.0336,0.0342 0.0087,0.0082 0.0181,0.0159 0.0272,0.0237 0.0104,0.009 0.0206,0.018 0.0315,0.0264 0.0132,0.0103 0.0272,0.0197 0.0412,0.0292 0.0076,0.0051 0.0148,0.0106 0.0226,0.0155 0.0195,0.0122 0.0397,0.0234 0.0604,0.0341 0.0029,0.0015 0.0055,0.0032 0.0084,0.0047 3e-4,10e-5 6e-4,2e-4 9e-4,5e-4 0.0273,0.0135 0.0553,0.0256 0.0843,0.0361 0.0072,0.0026 0.0145,0.0044 0.0217,0.0068 0.0198,0.0066 0.0399,0.0128 0.0604,0.0179 0.0136,0.0033 0.0271,0.0057 0.0407,0.0084 0.0101,0.0019 0.0199,0.0046 0.0303,0.0062 0.0034,5e-4 0.0067,3e-4 0.0102,8e-4 0.0373,0.0052 0.0747,0.0088 0.1119,0.0088 4e-4,0 9e-4,-10e-5 0.0012,-10e-5 h 4e-4 c 0.0334,0 0.0662,-0.0028 0.0988,-0.0069 0.0065,-9e-4 0.0128,-0.0016 0.0193,-0.0026 0.0666,-0.0099 0.131,-0.0281 0.1919,-0.0536 0.0059,-0.0025 0.0117,-0.0048 0.0176,-0.0074 0.0294,-0.0132 0.0582,-0.0278 0.0858,-0.0444 0.0051,-0.003 0.0098,-0.0064 0.0148,-0.0095 0.0232,-0.0147 0.0456,-0.0305 0.0673,-0.0473 0.0064,-0.0049 0.0129,-0.0098 0.0191,-0.015 0.024,-0.0199 0.0468,-0.0413 0.0685,-0.064 0.0054,-0.0057 0.0105,-0.0116 0.0158,-0.0174 0.0217,-0.0241 0.0424,-0.0493 0.0612,-0.076 6e-4,-9e-4 0.0013,-0.0016 0.0019,-0.0024 0.0203,-0.0293 0.0383,-0.0603 0.0548,-0.0923 0.0012,-0.0026 0.0031,-0.0049 0.0044,-0.0075 l 5.8962,-11.7925 19.5353,-8.4935 c 0.0053,-0.0023 0.01,-0.0052 0.0152,-0.0076 0.0156,-0.0072 0.031,-0.0147 0.0461,-0.0229 0.0014,-7e-4 0.003,-0.0014 0.0045,-0.0021 0.0024,-0.0013 0.0049,-0.0023 0.0074,-0.0037 0.0056,-0.0031 0.0107,-0.0069 0.0163,-0.0101 0.0122,-0.0072 0.0243,-0.0148 0.036,-0.0226 0.0077,-0.0052 0.0156,-0.01 0.0231,-0.0154 0.0029,-0.0021 0.0056,-0.0044 0.0085,-0.0066 0.0089,-0.0064 0.0175,-0.0132 0.026,-0.0201 0.002,-0.0016 0.0044,-0.0027 0.0064,-0.0044 0.0021,-0.0017 0.0039,-0.0037 0.006,-0.0054 0.0075,-0.0062 0.0147,-0.0126 0.0219,-0.0192 0.0071,-0.0064 0.014,-0.0131 0.0209,-0.0197 4e-4,-4e-4 9e-4,-7e-4 0.0013,-0.0011 0.003,-0.0029 0.0062,-0.0054 0.0092,-0.0084 0.0023,-0.0023 0.0043,-0.0047 0.0066,-0.0069 0.0054,-0.0056 0.0107,-0.0112 0.0159,-0.0169 0.0067,-0.0073 0.0131,-0.0149 0.0195,-0.0224 0.0063,-0.0072 0.0127,-0.0143 0.0186,-0.0218 0.0035,-0.0043 0.0067,-0.0086 0.0101,-0.0129 0.0026,-0.0034 0.0053,-0.0069 0.0079,-0.0103 0.0028,-0.0039 0.0053,-0.008 0.0081,-0.0118 8e-4,-0.0012 0.0016,-0.0025 0.0025,-0.0037 0.0062,-0.0088 0.0127,-0.0175 0.0185,-0.0266 0.0018,-0.0029 0.0036,-0.0057 0.0055,-0.0086 0.0062,-0.01 0.0119,-0.0203 0.0177,-0.0306 0.0055,-0.0097 0.0112,-0.0191 0.0163,-0.0289 2e-4,-4e-4 5e-4,-9e-4 7e-4,-0.0014 8e-4,-0.0015 0.0015,-0.003 0.0023,-0.0045 0.0058,-0.0116 0.011,-0.0236 0.0162,-0.0354 0.0043,-0.0097 0.009,-0.0193 0.0128,-0.0292 7e-4,-0.0016 0.0014,-0.0032 0.0021,-0.0049 0.0049,-0.0127 0.009,-0.0257 0.0133,-0.0387 7e-4,-0.0018 0.0013,-0.0037 0.002,-0.0055 7e-4,-0.0024 0.002,-0.0045 0.0028,-0.0069 l 0.0032,-0.0103 c 1e-4,-2e-4 1e-4,-5e-4 2e-4,-7e-4 l 3.6252,-11.4796 h 7.654 c 6e-4,0 0.0011,10e-5 0.0015,10e-5 0.0019,0 0.0037,-3e-4 0.0055,-3e-4 0.0298,-2e-4 0.0591,-0.0021 0.0881,-0.0055 0.0081,-9e-4 0.0162,-0.0025 0.0243,-0.0036 0.0234,-0.0035 0.0465,-0.0077 0.0692,-0.0131 0.0084,-0.0019 0.0167,-0.0042 0.025,-0.0064 0.0232,-0.0063 0.0459,-0.0136 0.0682,-0.0219 0.007,-0.0026 0.0141,-0.0049 0.0211,-0.0077 0.0289,-0.0116 0.0573,-0.0245 0.0845,-0.0392 6e-4,-3e-4 0.0013,-9e-4 0.0019,-0.0012 0.0257,-0.0141 0.0504,-0.0298 0.0744,-0.0466 0.009,-0.0063 0.0178,-0.0131 0.0265,-0.0198 0.016,-0.0122 0.0315,-0.0249 0.0465,-0.0381 0.0086,-0.0076 0.0172,-0.0152 0.0255,-0.0232 0.0199,-0.0192 0.0388,-0.0392 0.0566,-0.0603 0.002,-0.0024 0.0042,-0.0044 0.0062,-0.0068 0.0203,-0.025 0.0386,-0.0512 0.0559,-0.0781 z m -8.9327,-3.0979 -4.1212,13.0507 -6.1819,-7.5557 z M 4.50074,1.97871 25.5214,5.73237 19.5155,20.74707 Z M 40.318,23.10557 20.9082,21.61257 26.8805,6.68187 Z m -17.4323,8.44 -2.0804,-8.3217 18.0303,1.387 z m -1.4076,1.0263 -3.591,7.182 2.052,-13.3382 z M 15.369,18.14847 3.28967,9.36347 h 5.05139 z m 32.3912,-9.2164 3.6179,2.2611 h -4.3319 z"></path></svg>