<svg xmlns="http://www.w3.org/2000/svg" width="1920" height="1624" viewBox="0 0 1920 1624" fill="none"><g filter="url(#filter0_f_4419_843)"><path d="M968.216 1222.78C968.422 1222.85 968.628 1222.93 968.834 1223C968.263 1223 968.004 1222.93 968.216 1222.78C771.566 1151.67 192.961 1052.72 274.891 821.559C356.906 590.16 930.441 414.271 1102.8 405.839C1272.99 387.209 1596.2 412.367 1527.58 662.044C1441.81 974.139 1175.51 937.422 1132.21 1001.88C1088.92 1066.34 1134.66 1192.81 1046.03 1207.91C985.755 1218.17 969.418 1221.89 968.216 1222.78Z" fill="url(#paint0_linear_4419_843)" fill-opacity="0.3"></path><path d="M968.834 1223.5L968.922 1223C969.092 1222.94 969.309 1222.86 969.578 1222.78C970.243 1222.58 971.205 1222.32 972.522 1222.01C975.155 1221.38 979.185 1220.51 985.067 1219.35C996.83 1217.03 1015.98 1213.53 1046.11 1208.4C1068.42 1204.6 1082.3 1193.78 1091.23 1178.66C1100.14 1163.58 1104.09 1144.26 1106.62 1123.47C1107.67 1114.8 1108.48 1105.87 1109.29 1096.87C1109.46 1095.07 1109.62 1093.26 1109.78 1091.46C1110.78 1080.64 1111.85 1069.78 1113.44 1059.22C1116.62 1038.09 1121.86 1018.18 1132.63 1002.16C1137.97 994.207 1146.78 987.779 1158.34 982.02C1169.89 976.264 1184.15 971.201 1200.35 965.952C1206.42 963.984 1212.76 961.99 1219.33 959.925C1247.8 950.979 1280.55 940.685 1314.18 925.281C1397 887.34 1485.13 818.389 1528.07 662.176C1545.25 599.651 1537.92 551.114 1514.52 513.794C1491.13 476.489 1451.73 450.465 1404.92 432.858C1311.32 397.65 1187.89 396.024 1102.76 405.341C1016.49 409.565 829.971 455.667 654.772 529.626C567.161 566.61 482.357 610.57 414.321 659.762C346.295 708.945 294.973 763.4 274.419 821.392C264.143 850.387 264.218 877.331 272.619 902.409C281.018 927.477 297.725 950.65 320.663 972.134C366.53 1015.1 437.393 1051.39 516.903 1082.65C596.423 1113.92 684.645 1140.19 765.264 1163.08C781.4 1167.66 797.23 1172.1 812.625 1176.43C873.983 1193.66 928.422 1208.94 967.703 1223.12C967.748 1223.21 967.809 1223.27 967.86 1223.31C967.938 1223.37 968.019 1223.4 968.073 1223.42C968.27 1223.49 968.556 1223.5 968.834 1223.5Z" stroke="#A47D7D"></path></g><defs><filter id="filter0_f_4419_843" x="-134" y="0" width="2072" height="1624" filterUnits="userSpaceOnUse" color-interpolation-filters="sRGB"><feGaussianBlur stdDeviation="200"></feGaussianBlur></filter><linearGradient id="paint0_linear_4419_843" x1="896.949" y1="1222.59" x2="1298.15" y2="513.959" gradientUnits="userSpaceOnUse"><stop stop-color="#19206A"></stop><stop offset="1" stop-color="#5781F3"></stop></linearGradient></defs></svg>