<svg xmlns="http://www.w3.org/2000/svg" xmlns:svg="http://www.w3.org/2000/svg" viewBox="0 0 31.939835 31.939835" fill="none"><path d="m 21.627335,14.0625 -5.625,5.625 -3.75,-3.75 -5.625,5.625" stroke="url(#paint0_linear_6772_229)" stroke-width="2" stroke-linecap="round" stroke-linejoin="round" id="path1" style="stroke:url(#paint0_linear_6772_229)"></path><path d="m 19.752335,2.8125 h -15.55 c -1.1201,0 -1.68016,0 -2.10798,0.21799 -0.37633,0.19174 -0.68229,0.4977 -0.87403,0.87403 -0.21799,0.42782 -0.21799,0.98788 -0.21799,2.10798 v 21.725 c 0,1.1201 0,1.6802 0.21799,2.108 0.19174,0.3763 0.4977,0.6823 0.87403,0.874 0.42782,0.218 0.98788,0.218 2.10798,0.218 h 21.725 c 1.1201,0 1.6802,0 2.108,-0.218 0.3763,-0.1917 0.6823,-0.4977 0.874,-0.874 0.218,-0.4278 0.218,-0.9879 0.218,-2.108 v -15.55" stroke="url(#paint1_linear_6772_229)" stroke-width="2" stroke-linecap="round" id="path2" style="stroke:url(#paint1_linear_6772_229)"></path><circle cx="27.252335" cy="4.6875" r="3.6875" stroke="url(#paint2_linear_6772_229)" stroke-width="2" stroke-linecap="round" id="circle2" style="stroke:url(#paint2_linear_6772_229)"></circle><defs id="defs10"><linearGradient id="paint0_linear_6772_229" x1="29.0625" y1="19.7572" x2="28.1182" y2="28.6964" gradientUnits="userSpaceOnUse" gradientTransform="translate(-7.435165,-5.625)"><stop stop-color="#8258C8" id="stop2"></stop><stop offset="0.315" stop-color="#6766C8" id="stop3"></stop><stop offset="1" stop-color="#2C84C8" id="stop4"></stop></linearGradient><linearGradient id="paint1_linear_6772_229" x1="8.6988897" y1="8.4374905" x2="41.1465" y2="15.2927" gradientUnits="userSpaceOnUse" gradientTransform="translate(-7.435165,-5.625)"><stop stop-color="#8258C8" id="stop5"></stop><stop offset="0.315" stop-color="#6766C8" id="stop6"></stop><stop offset="1" stop-color="#2C84C8" id="stop7"></stop></linearGradient><linearGradient id="paint2_linear_6772_229" x1="30.087099" y1="5.625" x2="40.903" y2="7.91008" gradientUnits="userSpaceOnUse" gradientTransform="translate(-7.435165,-5.625)"><stop stop-color="#8258C8" id="stop8"></stop><stop offset="0.315" stop-color="#6766C8" id="stop9"></stop><stop offset="1" stop-color="#2C84C8" id="stop10"></stop></linearGradient></defs></svg>