<svg xmlns="http://www.w3.org/2000/svg" width="1920" height="2016" viewBox="0 0 1920 2016" fill="none"><g filter="url(#filter0_f_7054_228)"><path d="M1070.09 845.429C1069.91 845.303 1069.73 845.178 1069.56 845.052C1070.11 845.2 1070.34 845.333 1070.09 845.429C1241.64 965.009 1774.92 1210.34 1635.95 1412.42C1496.84 1614.71 897.326 1636.16 728.654 1599.7C559.447 1573.64 253.757 1465.69 384.658 1242.28C548.285 963.018 796.012 1067.41 854.515 1016.35C913.018 965.295 901.564 831.294 991.083 839.653C1051.96 845.338 1068.7 845.972 1070.09 845.429Z" fill="url(#paint0_linear_7054_228)" fill-opacity="0.3"></path><path d="M1069.68 844.569L1069.47 845.031C1069.29 845.047 1069.06 845.061 1068.78 845.07C1068.09 845.093 1067.09 845.091 1065.74 845.055C1063.03 844.984 1058.91 844.778 1052.93 844.378C1040.97 843.577 1021.57 841.997 991.13 839.155C968.604 837.052 952.39 843.911 939.855 856.199C927.348 868.461 918.528 886.106 910.704 905.534C907.443 913.632 904.351 922.053 901.236 930.533C900.613 932.23 899.989 933.929 899.363 935.629C895.604 945.826 891.758 956.036 887.488 965.827C878.946 985.416 868.728 1003.28 854.186 1015.97C846.968 1022.27 836.797 1026.2 824.141 1028.77C811.488 1031.34 796.405 1032.54 779.403 1033.42C773.028 1033.75 766.385 1034.04 759.503 1034.33C729.694 1035.6 695.391 1037.07 658.925 1043.25C569.106 1058.46 466.127 1102.25 384.227 1242.03C351.446 1297.97 345.967 1346.75 358.911 1388.86C371.849 1430.95 403.169 1466.28 443.824 1495.4C525.122 1553.64 643.926 1587.15 728.563 1600.19C812.986 1618.43 1005.09 1622.18 1193.46 1596.09C1287.66 1583.04 1380.95 1562.52 1459.4 1532.62C1537.83 1502.72 1601.5 1463.4 1636.36 1412.7C1653.8 1387.36 1660.7 1361.31 1659.07 1334.91C1657.45 1308.53 1647.31 1281.82 1630.71 1255.13C1597.53 1201.76 1538.47 1148.37 1469.76 1097.59C1401.05 1046.8 1322.63 998.597 1250.68 955.623C1236.28 947.022 1222.14 938.63 1208.39 930.47C1153.58 897.945 1104.95 869.089 1070.68 845.227C1070.66 845.132 1070.62 845.057 1070.58 845.005C1070.52 844.927 1070.45 844.874 1070.4 844.843C1070.23 844.728 1069.95 844.641 1069.68 844.569Z" stroke="#A47D7D"></path></g><g filter="url(#filter1_f_7054_228)"><ellipse cx="748" cy="253" rx="748" ry="253" transform="matrix(1 0 0 -1 212 905.996)" fill="#B66DD2" fill-opacity="0.5"></ellipse></g><defs><filter id="filter0_f_7054_228" x="-48.0669" y="438.279" width="2107.87" height="1576.99" filterUnits="userSpaceOnUse" color-interpolation-filters="sRGB"><feFlood flood-opacity="0" result="BackgroundImageFix"></feFlood><feBlend mode="normal" in="SourceGraphic" in2="BackgroundImageFix" result="shape"></feBlend><feGaussianBlur stdDeviation="200" result="effect1_foregroundBlur_7054_228"></feGaussianBlur></filter><filter id="filter1_f_7054_228" x="-188" y="-0.00390625" width="2296" height="1306" filterUnits="userSpaceOnUse" color-interpolation-filters="sRGB"><feFlood flood-opacity="0" result="BackgroundImageFix"></feFlood><feBlend mode="normal" in="SourceGraphic" in2="BackgroundImageFix" result="shape"></feBlend><feGaussianBlur stdDeviation="200" result="effect1_foregroundBlur_7054_228"></feGaussianBlur></filter><linearGradient id="paint0_linear_7054_228" x1="1138.89" y1="864.052" x2="567.947" y2="1444.7" gradientUnits="userSpaceOnUse"><stop stop-color="#19206A"></stop><stop offset="1" stop-color="#5781F3"></stop></linearGradient></defs></svg>