<svg xmlns="http://www.w3.org/2000/svg" viewBox="0 0 27 28" fill="none"><g clip-path="url(#clip0_4016_504)"><path d="M8.45297 5.84211C8.39047 5.68255 8.28361 5.54587 8.14598 5.44947C8.00835 5.35307 7.84618 5.30131 7.6801 5.30078V5.30078C7.51093 5.30129 7.34585 5.35467 7.20637 5.45394C7.0669 5.55321 6.95951 5.69377 6.89822 5.85728L4.6741 11.9088C4.64116 11.9983 4.62557 12.0937 4.62822 12.1895C4.63086 12.2853 4.65169 12.3796 4.68952 12.4671C4.72734 12.5545 4.78142 12.6334 4.84865 12.6991C4.91588 12.7649 4.99496 12.8162 5.08135 12.8503C5.16121 12.8814 5.24577 12.8976 5.3311 12.8981C5.47323 12.8982 5.61205 12.8536 5.72931 12.7703C5.84657 12.687 5.93679 12.5689 5.9881 12.4314L6.36947 11.3943H8.96935L9.34622 12.4291C9.3788 12.5187 9.42808 12.6008 9.49125 12.6707C9.55442 12.7406 9.63024 12.7969 9.71439 12.8364C9.79854 12.8759 9.88936 12.8978 9.98167 12.9009C10.074 12.9039 10.166 12.8881 10.2524 12.8544C10.3388 12.8206 10.418 12.7695 10.4854 12.704C10.5528 12.6385 10.607 12.5598 10.6451 12.4726C10.6832 12.3853 10.7043 12.2911 10.7073 12.1954C10.7103 12.0996 10.695 12.0042 10.6625 11.9146L8.45297 5.84211ZM6.90497 9.93245L7.67447 7.83245L8.43835 9.93245H6.90497Z" fill="url(#paint0_linear_4016_504)"></path><path d="M12.6348 5.30078C12.4484 5.30109 12.2697 5.37801 12.1379 5.51469C12.0061 5.65137 11.9319 5.83666 11.9316 6.02995V12.1689C11.9316 12.3623 12.0057 12.5478 12.1376 12.6845C12.2694 12.8213 12.4483 12.8981 12.6348 12.8981C12.8212 12.8981 13.0001 12.8213 13.1319 12.6845C13.2638 12.5478 13.3379 12.3623 13.3379 12.1689V6.02995C13.3379 5.83656 13.2638 5.65109 13.1319 5.51435C13.0001 5.3776 12.8212 5.30078 12.6348 5.30078V5.30078Z" fill="url(#paint1_linear_4016_504)"></path><path d="M21.374 0H5.62402C4.13273 0.0018525 2.70303 0.617029 1.64852 1.71059C0.594016 2.80415 0.000809777 4.28681 -0.000976562 5.83333L-0.000976562 22.1667C0.000809777 23.7132 0.594016 25.1959 1.64852 26.2894C2.70303 27.383 4.13273 27.9981 5.62402 28H18.3849C19.1239 28.0022 19.856 27.8524 20.5389 27.5592C21.2217 27.266 21.8417 26.8353 22.3629 26.292L25.3509 23.191C25.8749 22.6507 26.2903 22.008 26.5732 21.3001C26.8561 20.5922 27.0008 19.8331 26.999 19.0668V5.83333C26.9972 4.28681 26.404 2.80415 25.3495 1.71059C24.295 0.617029 22.8653 0.0018525 21.374 0V0ZM2.24902 22.1667V5.83333C2.24902 4.90508 2.6046 4.01484 3.23754 3.35846C3.87047 2.70208 4.72892 2.33333 5.62402 2.33333H21.374C22.2691 2.33333 23.1276 2.70208 23.7605 3.35846C24.3934 4.01484 24.749 4.90508 24.749 5.83333V17.5H20.249C19.3539 17.5 18.4955 17.8687 17.8625 18.5251C17.2296 19.1815 16.874 20.0717 16.874 21V25.6667H5.62402C4.72892 25.6667 3.87047 25.2979 3.23754 24.6415C2.6046 23.9852 2.24902 23.0949 2.24902 22.1667ZM20.7722 24.6423C20.3199 25.1102 19.748 25.434 19.124 25.5757V21C19.124 20.6906 19.2426 20.3938 19.4535 20.175C19.6645 19.9563 19.9507 19.8333 20.249 19.8333H24.6647C24.5255 20.4791 24.2135 21.0711 23.7647 21.5413L20.7722 24.6423Z" fill="url(#paint2_linear_4016_504)"></path></g><defs><linearGradient id="paint0_linear_4016_504" x1="4.68443" y1="5.30078" x2="11.8082" y2="6.5047" gradientUnits="userSpaceOnUse"><stop stop-color="#8258C8"></stop><stop offset="1" stop-color="#2C84C8"></stop></linearGradient><linearGradient id="paint1_linear_4016_504" x1="11.9447" y1="5.30078" x2="13.6369" y2="5.36695" gradientUnits="userSpaceOnUse"><stop stop-color="#8258C8"></stop><stop offset="1" stop-color="#2C84C8"></stop></linearGradient><linearGradient id="paint2_linear_4016_504" x1="0.249954" y1="-5.11022e-06" x2="31.4934" y2="6.36508" gradientUnits="userSpaceOnUse"><stop stop-color="#8258C8"></stop><stop offset="1" stop-color="#2C84C8"></stop></linearGradient><clipPath id="clip0_4016_504"><rect width="27" height="28" fill="white" transform="translate(-0.000976562)"></rect></clipPath></defs></svg>