<svg xmlns="http://www.w3.org/2000/svg" viewBox="0 0 28 28" fill="none"><g clip-path="url(#clip0_4029_599)"><path d="M22.1647 1.16602H5.83138C4.28485 1.16787 2.8022 1.78304 1.70864 2.87661C0.615076 3.97017 -0.000100625 5.45282 -0.00195312 6.99935L-0.00195312 20.9994C-0.000100625 22.5459 0.615076 24.0285 1.70864 25.1221C2.8022 26.2157 4.28485 26.8308 5.83138 26.8327H22.1647C23.7112 26.8308 25.1939 26.2157 26.2875 25.1221C27.381 24.0285 27.9962 22.5459 27.998 20.9994V6.99935C27.9962 5.45282 27.381 3.97017 26.2875 2.87661C25.1939 1.78304 23.7112 1.16787 22.1647 1.16602V1.16602ZM5.83138 3.49935H22.1647C23.093 3.49935 23.9832 3.8681 24.6396 4.52448C25.296 5.18085 25.6647 6.07109 25.6647 6.99935V8.16602H2.33138V6.99935C2.33138 6.07109 2.70013 5.18085 3.35651 4.52448C4.01288 3.8681 4.90312 3.49935 5.83138 3.49935V3.49935ZM22.1647 24.4994H5.83138C4.90312 24.4994 4.01288 24.1306 3.35651 23.4742C2.70013 22.8178 2.33138 21.9276 2.33138 20.9994V10.4993H25.6647V20.9994C25.6647 21.9276 25.296 22.8178 24.6396 23.4742C23.9832 24.1306 23.093 24.4994 22.1647 24.4994ZM22.1647 15.166C22.1647 15.4754 22.0418 15.7722 21.823 15.991C21.6042 16.2098 21.3075 16.3327 20.998 16.3327H6.99805C6.68863 16.3327 6.39188 16.2098 6.17309 15.991C5.9543 15.7722 5.83138 15.4754 5.83138 15.166C5.83138 14.8566 5.9543 14.5599 6.17309 14.3411C6.39188 14.1223 6.68863 13.9993 6.99805 13.9993H20.998C21.3075 13.9993 21.6042 14.1223 21.823 14.3411C22.0418 14.5599 22.1647 14.8566 22.1647 15.166ZM17.498 19.8327C17.498 20.1421 17.3751 20.4388 17.1563 20.6576C16.9375 20.8764 16.6408 20.9994 16.3314 20.9994H6.99805C6.68863 20.9994 6.39188 20.8764 6.17309 20.6576C5.9543 20.4388 5.83138 20.1421 5.83138 19.8327C5.83138 19.5233 5.9543 19.2265 6.17309 19.0077C6.39188 18.7889 6.68863 18.666 6.99805 18.666H16.3314C16.6408 18.666 16.9375 18.7889 17.1563 19.0077C17.3751 19.2265 17.498 19.5233 17.498 19.8327ZM3.49805 5.83268C3.49805 5.60194 3.56647 5.37637 3.69467 5.18452C3.82286 4.99266 4.00507 4.84313 4.21825 4.75482C4.43143 4.66652 4.66601 4.64342 4.89232 4.68843C5.11863 4.73345 5.32651 4.84456 5.48967 5.00772C5.65283 5.17089 5.76395 5.37877 5.80896 5.60508C5.85398 5.83139 5.83088 6.06597 5.74257 6.27915C5.65427 6.49233 5.50474 6.67454 5.31288 6.80273C5.12102 6.93093 4.89546 6.99935 4.66471 6.99935C4.35529 6.99935 4.05855 6.87643 3.83976 6.65764C3.62096 6.43885 3.49805 6.1421 3.49805 5.83268ZM6.99805 5.83268C6.99805 5.60194 7.06647 5.37637 7.19467 5.18452C7.32286 4.99266 7.50507 4.84313 7.71825 4.75482C7.93143 4.66652 8.16601 4.64342 8.39232 4.68843C8.61863 4.73345 8.82651 4.84456 8.98967 5.00772C9.15283 5.17089 9.26395 5.37877 9.30896 5.60508C9.35398 5.83139 9.33088 6.06597 9.24257 6.27915C9.15427 6.49233 9.00474 6.67454 8.81288 6.80273C8.62102 6.93093 8.39546 6.99935 8.16471 6.99935C7.85529 6.99935 7.55855 6.87643 7.33976 6.65764C7.12096 6.43885 6.99805 6.1421 6.99805 5.83268ZM10.498 5.83268C10.498 5.60194 10.5665 5.37637 10.6947 5.18452C10.8229 4.99266 11.0051 4.84313 11.2182 4.75482C11.4314 4.66652 11.666 4.64342 11.8923 4.68843C12.1186 4.73345 12.3265 4.84456 12.4897 5.00772C12.6528 5.17089 12.7639 5.37877 12.809 5.60508C12.854 5.83139 12.8309 6.06597 12.7426 6.27915C12.6543 6.49233 12.5047 6.67454 12.3129 6.80273C12.121 6.93093 11.8955 6.99935 11.6647 6.99935C11.3553 6.99935 11.0585 6.87643 10.8398 6.65764C10.621 6.43885 10.498 6.1421 10.498 5.83268Z" fill="url(#paint0_linear_4029_599)"></path></g><defs><linearGradient id="paint0_linear_4029_599" x1="0.258271" y1="1.16601" x2="32.3015" y2="8.55125" gradientUnits="userSpaceOnUse"><stop stop-color="#8258C8"></stop><stop offset="1" stop-color="#2C84C8"></stop></linearGradient><clipPath id="clip0_4029_599"><rect width="28" height="28" fill="white" transform="translate(-0.00195312)"></rect></clipPath></defs></svg>