<svg xmlns="http://www.w3.org/2000/svg" width="1211" height="1509" viewBox="0 0 1211 1509" fill="none"><g filter="url(#filter0_f_5737_155)"><path d="M597.125 1108.5C710.081 1111.88 805.487 986.727 810.218 828.953C814.95 671.178 727.216 540.53 614.259 537.143C501.302 533.755 405.897 658.911 401.165 816.685C396.434 974.46 484.168 1105.11 597.125 1108.5Z" fill="#D3F7DF"></path></g><g filter="url(#filter1_f_5737_155)"><path d="M589.91 400.937C504.649 393.792 424.443 520.308 410.765 683.518C397.088 846.728 455.118 984.828 540.38 991.974C625.641 999.119 705.848 872.603 719.525 709.393C733.203 546.183 675.172 408.082 589.91 400.937Z" fill="#AD91FE" fill-opacity="0.7"></path></g><defs><filter id="filter0_f_5737_155" x="0.98291" y="137.075" width="1209.42" height="1371.49" filterUnits="userSpaceOnUse" color-interpolation-filters="sRGB"><feGaussianBlur stdDeviation="200"></feGaussianBlur></filter><filter id="filter1_f_5737_155" x="8.76807" y="0.648438" width="1112.75" height="1391.61" filterUnits="userSpaceOnUse" color-interpolation-filters="sRGB"><feGaussianBlur stdDeviation="200"></feGaussianBlur></filter></defs></svg>