<svg xmlns="http://www.w3.org/2000/svg" width="1920" height="831" viewBox="0 0 1920 831" fill="none"><g filter="url(#filter0_f_4365_846)"><path d="M1148.22 1340.78C1148.42 1340.85 1148.63 1340.93 1148.83 1341C1148.26 1341 1148 1340.93 1148.22 1340.78C951.566 1269.67 372.961 1170.72 454.891 939.559C536.906 708.16 1110.44 532.271 1282.8 523.839C1452.99 505.209 1776.2 530.367 1707.58 780.044C1621.81 1092.14 1355.51 1055.42 1312.21 1119.88C1268.92 1184.34 1314.66 1310.81 1226.03 1325.91C1165.75 1336.17 1149.42 1339.89 1148.22 1340.78Z" fill="url(#paint0_linear_4365_846)" fill-opacity="0.3"></path><path d="M1148.83 1341.5L1148.92 1341C1149.09 1340.94 1149.31 1340.86 1149.58 1340.78C1150.24 1340.58 1151.2 1340.32 1152.52 1340.01C1155.15 1339.38 1159.19 1338.51 1165.07 1337.35C1176.83 1335.03 1195.98 1331.53 1226.11 1326.4C1248.42 1322.6 1262.3 1311.78 1271.23 1296.66C1280.14 1281.58 1284.09 1262.26 1286.62 1241.47C1287.67 1232.8 1288.48 1223.87 1289.29 1214.87C1289.46 1213.07 1289.62 1211.27 1289.78 1209.46C1290.78 1198.64 1291.85 1187.78 1293.44 1177.22C1296.62 1156.09 1301.86 1136.18 1312.63 1120.16C1317.97 1112.21 1326.78 1105.78 1338.34 1100.02C1349.89 1094.26 1364.15 1089.2 1380.35 1083.95C1386.42 1081.98 1392.76 1079.99 1399.33 1077.93C1427.8 1068.98 1460.55 1058.68 1494.18 1043.28C1577 1005.34 1665.13 936.389 1708.07 780.176C1725.25 717.651 1717.92 669.114 1694.52 631.794C1671.13 594.489 1631.73 568.465 1584.92 550.858C1491.32 515.65 1367.89 514.024 1282.76 523.341C1196.49 527.565 1009.97 573.667 834.772 647.626C747.161 684.61 662.357 728.57 594.321 777.762C526.295 826.945 474.974 881.4 454.419 939.392C444.143 968.387 444.218 995.331 452.619 1020.41C461.018 1045.48 477.725 1068.65 500.663 1090.13C546.53 1133.1 617.393 1169.39 696.903 1200.65C776.423 1231.92 864.645 1258.19 945.264 1281.08C961.399 1285.66 977.229 1290.1 992.623 1294.42C1053.98 1311.66 1108.42 1326.94 1147.7 1341.12C1147.75 1341.21 1147.81 1341.27 1147.86 1341.31C1147.94 1341.37 1148.02 1341.4 1148.07 1341.42C1148.27 1341.49 1148.56 1341.5 1148.83 1341.5Z" stroke="#A47D7D"></path></g><g filter="url(#filter1_f_4365_846)"><ellipse cx="254" cy="253" rx="254" ry="253" transform="matrix(1 0 0 -1 133 906)" fill="#B66DD2" fill-opacity="0.5"></ellipse></g><defs><filter id="filter0_f_4365_846" x="46" y="118" width="2072" height="1624" filterUnits="userSpaceOnUse" color-interpolation-filters="sRGB"><feGaussianBlur stdDeviation="200"></feGaussianBlur></filter><filter id="filter1_f_4365_846" x="-267" y="0" width="1308" height="1306" filterUnits="userSpaceOnUse" color-interpolation-filters="sRGB"><feGaussianBlur stdDeviation="200"></feGaussianBlur></filter><linearGradient id="paint0_linear_4365_846" x1="1076.95" y1="1340.59" x2="1478.15" y2="631.959" gradientUnits="userSpaceOnUse"><stop stop-color="#19206A"></stop><stop offset="1" stop-color="#5781F3"></stop></linearGradient></defs></svg>