<svg xmlns="http://www.w3.org/2000/svg" width="1920" height="1810" viewBox="0 0 1920 1810" fill="none"><g filter="url(#filter0_f_4365_1032)"><ellipse cx="254" cy="253" rx="254" ry="253" transform="matrix(1 0 0 -1 532 1214)" fill="#B66DD2"></ellipse></g><g filter="url(#filter1_f_4365_1032)"><ellipse cx="323.5" cy="315" rx="323.5" ry="315" transform="matrix(1 0 0 -1 845 1169)" fill="#80EAFD" fill-opacity="0.5"></ellipse></g><g filter="url(#filter2_f_4365_1032)"><path d="M1063.4 1408.16C1063.65 1408.25 1063.91 1408.34 1064.16 1408.43C1063.46 1408.43 1063.14 1408.35 1063.4 1408.16C822.67 1321.01 114.365 1199.73 214.659 916.431C315.059 632.831 1017.16 417.264 1228.16 406.931C1436.49 384.098 1832.16 414.931 1748.16 720.931C1643.16 1103.43 1317.16 1058.43 1264.16 1137.43C1211.16 1216.43 1267.16 1371.43 1158.66 1389.93C1084.87 1402.51 1064.87 1407.07 1063.4 1408.16Z" fill="url(#paint0_linear_4365_1032)" fill-opacity="0.3"></path><path d="M1064.16 1408.93L1064.27 1408.31C1064.47 1408.23 1064.73 1408.15 1065.04 1408.06C1065.85 1407.81 1067.03 1407.49 1068.65 1407.11C1071.87 1406.33 1076.81 1405.27 1084.01 1403.85C1098.41 1401 1121.85 1396.71 1158.74 1390.42C1186.01 1385.77 1202.98 1372.53 1213.89 1354.04C1224.79 1335.57 1229.62 1311.91 1232.72 1286.43C1234.01 1275.81 1235 1264.86 1235.99 1253.84C1236.19 1251.63 1236.39 1249.42 1236.59 1247.21C1237.81 1233.94 1239.12 1220.63 1241.07 1207.69C1244.96 1181.78 1251.39 1157.37 1264.57 1137.71C1271.13 1127.94 1281.93 1120.05 1296.09 1112.99C1310.24 1105.93 1327.71 1099.72 1347.53 1093.29C1354.97 1090.88 1362.73 1088.43 1370.78 1085.9C1405.62 1074.94 1445.71 1062.32 1486.87 1043.45C1588.23 996.96 1696.1 912.479 1748.64 721.064C1769.67 644.458 1760.69 585.006 1732.07 539.299C1703.45 493.607 1655.25 461.724 1597.96 440.151C1483.4 397.009 1332.32 395.014 1228.12 406.432C1122.53 411.608 894.207 468.105 679.74 558.746C572.494 604.071 468.689 657.944 385.41 718.226C302.142 778.5 239.338 845.222 214.188 916.264C201.616 951.777 201.709 984.773 211.985 1015.48C222.259 1046.18 242.698 1074.57 270.769 1100.89C326.901 1153.53 413.633 1198 510.963 1236.32C608.303 1274.64 716.296 1306.83 814.987 1334.88C834.738 1340.49 854.116 1345.94 872.961 1351.24C948.097 1372.37 1014.76 1391.11 1062.86 1408.49C1062.9 1408.6 1062.98 1408.67 1063.04 1408.72C1063.12 1408.79 1063.2 1408.82 1063.26 1408.84C1063.48 1408.91 1063.82 1408.93 1064.16 1408.93Z" stroke="#A47D7D"></path></g><defs><filter id="filter0_f_4365_1032" x="132" y="307.996" width="1308" height="1306" filterUnits="userSpaceOnUse" color-interpolation-filters="sRGB"><feGaussianBlur stdDeviation="200"></feGaussianBlur></filter><filter id="filter1_f_4365_1032" x="445" y="138.996" width="1447" height="1430" filterUnits="userSpaceOnUse" color-interpolation-filters="sRGB"><feGaussianBlur stdDeviation="200"></feGaussianBlur></filter><filter id="filter2_f_4365_1032" x="-196" y="0" width="2356.69" height="1809.43" filterUnits="userSpaceOnUse" color-interpolation-filters="sRGB"><feGaussianBlur stdDeviation="200"></feGaussianBlur></filter><linearGradient id="paint0_linear_4365_1032" x1="976.159" y1="1407.93" x2="1468.16" y2="539.931" gradientUnits="userSpaceOnUse"><stop stop-color="#19206A"></stop><stop offset="1" stop-color="#5781F3"></stop></linearGradient></defs></svg>