<svg xmlns="http://www.w3.org/2000/svg" width="1341" height="1756" viewBox="0 0 1341 1756" fill="none"><g filter="url(#filter0_f_4365_914)"><path d="M1102.22 1222.78C1102.42 1222.85 1102.63 1222.93 1102.83 1223C1102.26 1223 1102 1222.93 1102.22 1222.78C905.566 1151.67 326.961 1052.72 408.891 821.559C490.906 590.16 1064.44 414.271 1236.8 405.839C1406.99 387.209 1730.2 412.367 1661.58 662.044C1575.81 974.139 1309.51 937.422 1266.21 1001.88C1222.92 1066.34 1268.66 1192.81 1180.03 1207.91C1119.75 1218.17 1103.42 1221.89 1102.22 1222.78Z" fill="url(#paint0_linear_4365_914)" fill-opacity="0.3"></path><path d="M1102.83 1223.5L1102.92 1223C1103.09 1222.94 1103.31 1222.86 1103.58 1222.78C1104.24 1222.58 1105.2 1222.32 1106.52 1222.01C1109.15 1221.38 1113.19 1220.51 1119.07 1219.35C1130.83 1217.03 1149.98 1213.53 1180.11 1208.4C1202.42 1204.6 1216.3 1193.78 1225.23 1178.66C1234.14 1163.58 1238.09 1144.26 1240.62 1123.47C1241.67 1114.8 1242.48 1105.87 1243.29 1096.87C1243.46 1095.07 1243.62 1093.27 1243.78 1091.46C1244.78 1080.64 1245.85 1069.78 1247.44 1059.22C1250.62 1038.09 1255.86 1018.18 1266.63 1002.16C1271.97 994.207 1280.78 987.779 1292.34 982.02C1303.89 976.264 1318.15 971.201 1334.35 965.952C1340.42 963.984 1346.76 961.99 1353.33 959.925C1381.8 950.979 1414.55 940.685 1448.18 925.281C1531 887.34 1619.13 818.389 1662.07 662.176C1679.25 599.651 1671.92 551.114 1648.52 513.794C1625.13 476.489 1585.73 450.465 1538.92 432.858C1445.32 397.65 1321.89 396.024 1236.76 405.341C1150.49 409.565 963.971 455.667 788.772 529.626C701.161 566.61 616.357 610.57 548.321 659.762C480.295 708.945 428.974 763.4 408.419 821.392C398.143 850.387 398.218 877.331 406.619 902.409C415.018 927.477 431.725 950.65 454.663 972.134C500.53 1015.1 571.393 1051.39 650.903 1082.65C730.423 1113.92 818.645 1140.19 899.264 1163.08C915.399 1167.66 931.229 1172.1 946.623 1176.42C1007.98 1193.66 1062.42 1208.94 1101.7 1223.12C1101.75 1223.21 1101.81 1223.27 1101.86 1223.31C1101.94 1223.37 1102.02 1223.4 1102.07 1223.42C1102.27 1223.49 1102.56 1223.5 1102.83 1223.5Z" stroke="#A47D7D"></path></g><g filter="url(#filter1_f_4365_914)"><ellipse cx="254" cy="253" rx="254" ry="253" transform="matrix(1 0 0 -1 861 1356)" fill="#B66DD2" fill-opacity="0.5"></ellipse></g><defs><filter id="filter0_f_4365_914" x="0" y="0" width="2072" height="1624" filterUnits="userSpaceOnUse" color-interpolation-filters="sRGB"><feGaussianBlur stdDeviation="200"></feGaussianBlur></filter><filter id="filter1_f_4365_914" x="461" y="450" width="1308" height="1306" filterUnits="userSpaceOnUse" color-interpolation-filters="sRGB"><feGaussianBlur stdDeviation="200"></feGaussianBlur></filter><linearGradient id="paint0_linear_4365_914" x1="1030.95" y1="1222.59" x2="1432.15" y2="513.959" gradientUnits="userSpaceOnUse"><stop stop-color="#19206A"></stop><stop offset="1" stop-color="#5781F3"></stop></linearGradient></defs></svg>