<svg xmlns="http://www.w3.org/2000/svg" width="1111" height="1756" viewBox="0 0 1111 1756" fill="none"><g filter="url(#filter0_f_5607_152)"><path d="M141.216 1222.78C141.422 1222.85 141.628 1222.93 141.834 1223C141.263 1223 141.004 1222.93 141.216 1222.78C-55.4343 1151.67 -634.039 1052.72 -552.109 821.559C-470.094 590.16 103.441 414.271 275.803 405.839C445.988 387.209 769.202 412.367 700.584 662.044C614.811 974.139 348.506 937.422 305.211 1001.88C261.917 1066.34 307.662 1192.81 219.03 1207.91C158.755 1218.17 142.418 1221.89 141.216 1222.78Z" fill="url(#paint0_linear_5607_152)" fill-opacity="0.3"></path><path d="M141.834 1223.5L141.922 1223C142.092 1222.94 142.309 1222.86 142.578 1222.78C143.244 1222.58 144.205 1222.32 145.522 1222.01C148.155 1221.38 152.186 1220.51 158.067 1219.35C169.83 1217.03 188.978 1213.53 219.114 1208.4C241.416 1204.6 255.303 1193.78 264.229 1178.66C273.137 1163.58 277.09 1144.26 279.618 1123.47C280.672 1114.8 281.48 1105.87 282.293 1096.87C282.456 1095.07 282.619 1093.27 282.785 1091.46C283.776 1080.64 284.849 1069.78 286.439 1059.22C289.62 1038.09 294.865 1018.18 305.626 1002.16C310.968 994.207 319.775 987.779 331.335 982.02C342.892 976.264 357.15 971.201 373.346 965.952C379.418 963.984 385.761 961.99 392.333 959.925C420.796 950.979 453.551 940.685 487.177 925.281C569.997 887.34 658.134 818.389 701.066 662.176C718.249 599.651 710.916 551.114 687.516 513.794C664.125 476.489 624.728 450.465 577.921 432.858C484.321 397.65 360.89 396.024 275.764 405.341C189.495 409.565 2.9707 455.667 -172.228 529.626C-259.839 566.61 -344.643 610.57 -412.679 659.762C-480.705 708.945 -532.026 763.4 -552.581 821.392C-562.857 850.387 -562.782 877.331 -554.381 902.409C-545.982 927.477 -529.275 950.65 -506.337 972.134C-460.47 1015.1 -389.607 1051.39 -310.097 1082.65C-230.577 1113.92 -142.355 1140.19 -61.7358 1163.08C-45.6006 1167.66 -29.7709 1172.1 -14.3768 1176.42C46.9822 1193.66 101.422 1208.94 140.703 1223.12C140.748 1223.21 140.809 1223.27 140.86 1223.31C140.938 1223.37 141.019 1223.4 141.073 1223.42C141.27 1223.49 141.556 1223.5 141.834 1223.5Z" stroke="#A47D7D"></path></g><g filter="url(#filter1_f_5607_152)"><ellipse cx="254" cy="253" rx="254" ry="253" transform="matrix(1 0 0 -1 -100 1356)" fill="#B66DD2" fill-opacity="0.5"></ellipse></g><defs><filter id="filter0_f_5607_152" x="-961" y="0" width="2072" height="1624" filterUnits="userSpaceOnUse" color-interpolation-filters="sRGB"><feGaussianBlur stdDeviation="200"></feGaussianBlur></filter><filter id="filter1_f_5607_152" x="-500" y="450" width="1308" height="1306" filterUnits="userSpaceOnUse" color-interpolation-filters="sRGB"><feGaussianBlur stdDeviation="200"></feGaussianBlur></filter><linearGradient id="paint0_linear_5607_152" x1="69.9485" y1="1222.59" x2="471.15" y2="513.959" gradientUnits="userSpaceOnUse"><stop stop-color="#19206A"></stop><stop offset="1" stop-color="#5781F3"></stop></linearGradient></defs></svg>